<svg xmlns="http://www.w3.org/2000/svg" viewBox="0 0 240 240" fill="none">
  <rect width="240" height="240" fill="#f8fafc" rx="12"/>
  <rect x="24" y="24" width="192" height="192" fill="#fff" stroke="#e2e8f0" stroke-width="2" rx="8"/>
  <g fill="#0f172a">
    <rect x="40" y="40" width="16" height="16" rx="2"/>
    <rect x="64" y="40" width="16" height="16" rx="2"/>
    <rect x="88" y="40" width="16" height="16" rx="2"/>
    <rect x="136" y="40" width="16" height="16" rx="2"/>
    <rect x="160" y="40" width="16" height="16" rx="2"/>
    <rect x="184" y="40" width="16" height="16" rx="2"/>
    <rect x="40" y="64" width="16" height="16" rx="2"/>
    <rect x="88" y="64" width="16" height="16" rx="2"/>
    <rect x="112" y="64" width="16" height="16" rx="2"/>
    <rect x="160" y="64" width="16" height="16" rx="2"/>
    <rect x="184" y="64" width="16" height="16" rx="2"/>
    <rect x="40" y="88" width="16" height="16" rx="2"/>
    <rect x="64" y="88" width="16" height="16" rx="2"/>
    <rect x="88" y="88" width="16" height="16" rx="2"/>
    <rect x="136" y="88" width="16" height="16" rx="2"/>
    <rect x="184" y="88" width="16" height="16" rx="2"/>
    <rect x="40" y="112" width="16" height="16" rx="2"/>
    <rect x="112" y="112" width="16" height="16" rx="2"/>
    <rect x="136" y="112" width="16" height="16" rx="2"/>
    <rect x="160" y="112" width="16" height="16" rx="2"/>
    <rect x="184" y="112" width="16" height="16" rx="2"/>
    <rect x="40" y="136" width="16" height="16" rx="2"/>
    <rect x="64" y="136" width="16" height="16" rx="2"/>
    <rect x="112" y="136" width="16" height="16" rx="2"/>
    <rect x="160" y="136" width="16" height="16" rx="2"/>
    <rect x="40" y="160" width="16" height="16" rx="2"/>
    <rect x="88" y="160" width="16" height="16" rx="2"/>
    <rect x="136" y="160" width="16" height="16" rx="2"/>
    <rect x="184" y="160" width="16" height="16" rx="2"/>
    <rect x="40" y="184" width="16" height="16" rx="2"/>
    <rect x="64" y="184" width="16" height="16" rx="2"/>
    <rect x="88" y="184" width="16" height="16" rx="2"/>
    <rect x="112" y="184" width="16" height="16" rx="2"/>
    <rect x="136" y="184" width="16" height="16" rx="2"/>
    <rect x="160" y="184" width="16" height="16" rx="2"/>
    <rect x="184" y="184" width="16" height="16" rx="2"/>
  </g>
  <text x="120" y="228" text-anchor="middle" fill="#64748b" font-family="system-ui,sans-serif" font-size="9">Ganti file di public/images/payment (QRIS)</text>
</svg>
